HIERARCHY
ROOT Hips
{
  OFFSET 13.6774 106.653 -34.4427
  CHANNELS 6 Xposition Yposition Zposition Zrotation Xrotation Yrotation
  JOINT ToSpine
  {
    OFFSET -2.69724 7.43032 -0.144315
    CHANNELS 3 Zrotation Xrotation Yrotation
    JOINT Spine
    {
      OFFSET -0.0310711 10.7595 1.96963
      CHANNELS 3 Zrotation Xrotation Yrotation
      JOINT Spine1
      {
        OFFSET 19.9056 3.91189 0.764692
        CHANNELS 3 Zrotation Xrotation Yrotation
        JOINT Neck
        {
          OFFSET 25.9749 7.03908 -0.130764
          CHANNELS 3 Zrotation Xrotation Yrotation
          JOINT Head
          {
            OFFSET 9.52751 0.295786 -0.907742
            CHANNELS 3 Zrotation Xrotation Yrotation
            End Site
            {
              OFFSET 16.4037 0.713936 2.7358
            }
          }
        }
        JOINT LeftShoulder
        {
          OFFSET 17.7449 4.33886 11.7777
          CHANNELS 3 Zrotation Xrotation Yrotation
          JOINT LeftArm
          {
            OFFSET 0.911315 1.27913 9.80584
            CHANNELS 3 Zrotation Xrotation Yrotation
            JOINT LeftForeArm
            {
              OFFSET 28.6126 1.18197 -3.53199
              CHANNELS 3 Zrotation Xrotation Yrotation
              JOINT LeftHand
              {
                OFFSET 27.5088 0.0218783 0.327423
                CHANNELS 3 Zrotation Xrotation Yrotation
                End Site
                {
                  OFFSET 18.6038 -0.000155887 0.382096
                }
              }
            }
          }
        }
        JOINT RightShoulder
        {
          OFFSET 17.1009 2.89543 -12.2328
          CHANNELS 3 Zrotation Xrotation Yrotation
          JOINT RightArm
          {
            OFFSET 1.4228 0.178766 -10.211
            CHANNELS 3 Zrotation Xrotation Yrotation
            JOINT RightForeArm
            {
              OFFSET 28.733 1.87905 2.64907
              CHANNELS 3 Zrotation Xrotation Yrotation
              JOINT RightHand
              {
                OFFSET 27.4588 0.290562 -0.101845
                CHANNELS 3 Zrotation Xrotation Yrotation
                End Site
                {
                  OFFSET 17.8396 -0.255518 -0.000602873
                }
              }
            }
          }
        }
      }
    }
  }
  JOINT LeftUpLeg
  {
    OFFSET -5.61296 -2.22332 -10.2353
    CHANNELS 3 Zrotation Xrotation Yrotation
    JOINT LeftLeg
    {
      OFFSET 2.56703 -44.7417 -7.93097
      CHANNELS 3 Zrotation Xrotation Yrotation
      JOINT LeftFoot
      {
        OFFSET 3.16933 -46.5642 -3.96578
        CHANNELS 3 Zrotation Xrotation Yrotation
        JOINT LeftToeBase
        {
          OFFSET 0.346054 -6.02161 12.8035
          CHANNELS 3 Zrotation Xrotation Yrotation
          End Site
          {
            OFFSET 0.134235 -1.35082 5.13018
          }
        }
      }
    }
  }
  JOINT RightUpLeg
  {
    OFFSET -5.7928 -1.72406 10.6446
    CHANNELS 3 Zrotation Xrotation Yrotation
    JOINT RightLeg
    {
      OFFSET -2.57161 -44.7178 -7.85259
      CHANNELS 3 Zrotation Xrotation Yrotation
      JOINT RightFoot
      {
        OFFSET -3.10148 -46.5936 -4.03391
        CHANNELS 3 Zrotation Xrotation Yrotation
        JOINT RightToeBase
        {
          OFFSET -0.0828122 -6.13587 12.8035
          CHANNELS 3 Zrotation Xrotation Yrotation
          End Site
          {
            OFFSET -0.131328 -1.35082 5.13018
          }
        }
      }
    }
  }
}
MOTION
Frames: 8
Frame Time: 0.03333333333333333
0.0000 93.1000 0.0000 51.1527 -39.9802 -21.7873 -71.0699 0.0382 88.1321 126.1712 67.0432 -43.0973 2.8554 20.7158 2.7780 -115.0021 30.1389 162.5153 154.2933 64.8371 -99.9789 0.3331 -8.8598 -4.1278 -71.1742 45.1068 -159.0556 34.1773 -3.4325 -93.7258 -0.2730 0.2219 -0.0648 -3.0556 7.8799 48.9751 -130.1483 -5.8716 82.5791 11.7810 -5.0749 72.0683 -0.0082 -0.2403 -0.2268 -3.3696 18.8320 80.2511 -3.1285 48.0799 -7.4931 -7.1048 8.5550 1.5333 4.3460 -11.0743 4.1677 -22.0184 -5.6409 97.1929 4.7621 64.3520 -5.0996 -6.6129 -21.7302 1.5456 2.1100 -17.6265 -18.6921 
0.0000 93.1000 0.0000 52.5132 -41.8715 -21.6983 -71.0648 0.5416 88.0159 120.1918 69.8876 -36.7196 2.2066 22.3112 3.4145 -113.9798 31.2115 162.3019 152.4834 66.1037 -100.8554 0.7790 -8.5487 -5.3669 -68.4204 44.5219 -157.0327 31.2795 -5.0373 -95.1976 0.2494 0.1098 -0.1121 -2.8049 7.9700 47.6014 -126.2989 -5.0539 82.1706 10.9904 -7.3660 60.4310 0.2296 -0.0269 0.0882 -10.6006 18.7626 79.1578 -3.4746 37.9782 -10.6481 -8.3390 13.5648 1.9231 3.4352 -8.9287 0.1335 -30.1568 -9.4410 94.2319 2.5119 57.3718 -1.3294 -6.9653 -18.1073 1.9619 2.4415 -19.8935 -17.7593 
0.0000 93.1000 0.0000 55.5034 -43.6326 -20.4419 -70.9621 0.5446 87.8777 118.3738 71.7655 -34.3349 1.1510 23.6223 2.9870 -113.9011 32.6881 164.2403 151.2155 67.4047 -102.8017 0.9868 -7.8215 -7.1927 -67.2266 44.5485 -152.7144 29.8507 -6.0835 -96.9917 0.1460 0.0304 -0.0026 -2.8748 7.4845 46.5565 -123.7191 -4.7003 82.0274 8.5957 -8.5739 51.0031 0.0492 0.1261 -0.1299 -19.4552 18.5101 81.9751 -2.8690 35.7584 -12.5343 -8.4677 9.7452 1.7074 2.8862 -7.1020 0.6130 -37.0930 -12.9481 92.4975 1.9874 53.2359 0.9872 -7.4048 -12.2450 1.7158 2.5100 -21.1605 -19.1615 
0.0000 93.1000 0.0000 57.9776 -45.2606 -20.5815 -70.9124 0.7871 87.8296 122.5632 72.7032 -37.6807 -0.3462 24.0586 3.6334 -120.4301 34.5236 167.3842 147.8949 68.8300 -103.5023 1.3739 -7.8068 -9.8251 -67.9158 44.8271 -147.6788 28.9149 -6.1493 -99.6637 0.6649 -0.5451 -0.2805 -3.2104 7.3816 45.8478 -122.1336 -2.9199 80.9615 6.8769 -7.8486 44.3598 -0.1503 0.8157 -0.6726 -25.6438 18.3275 85.4976 -3.5541 38.9174 -14.3617 -6.6541 3.6591 1.4083 2.7431 -6.4773 2.4340 -41.8547 -16.0971 92.1813 2.0100 50.5001 -1.4457 -7.6714 -7.1037 1.3374 1.5130 -16.6413 -17.9089 
0.0000 93.1000 0.0000 58.8923 -46.1027 -21.0151 -70.8998 0.2794 87.8683 117.6193 73.3010 -32.7026 -1.2225 24.5248 3.6217 -120.5904 35.6628 165.5519 149.1730 70.1212 -110.5273 1.0380 -7.5413 -11.0201 -70.7993 43.9241 -143.7790 27.1934 -5.7095 -100.9106 0.1251 -0.1595 0.0464 -3.2310 7.7523 46.2071 -120.6402 -1.2255 81.3940 5.3055 -6.9039 39.5665 -0.2907 0.3665 -0.5091 -28.1075 17.1728 89.1757 -3.6362 40.3047 -14.3655 -3.7853 2.4681 0.6679 3.6772 -9.9253 2.0327 -42.2869 -17.8410 91.1327 2.5871 50.4366 -2.7729 -7.7479 -6.0635 0.9195 0.8675 -14.6084 -13.0289 
0.0000 93.1000 0.0000 60.3584 -46.8403 -21.2847 -70.8401 0.2465 87.8910 116.3425 73.9167 -31.6775 -1.8916 24.8988 4.2852 -123.3983 36.3995 167.4305 147.8894 71.0302 -109.7410 1.0465 -7.1397 -13.0466 -74.7326 42.0674 -140.5879 27.2695 -7.0366 -102.6560 0.1006 -0.1444 -0.0622 -3.1423 7.6082 45.8852 -121.2334 -0.8168 81.2171 3.4655 -6.2074 36.5297 -0.0467 0.4430 -0.1765 -31.8121 16.1245 91.2564 -3.0245 38.8775 -14.7656 -2.5313 -0.4490 0.3647 2.7880 -9.4287 5.3896 -43.2757 -17.5677 90.3995 3.0441 47.6230 0.9713 -8.1878 -3.9673 0.9891 1.9776 -18.9576 -16.5729 
0.0000 93.1000 0.0000 59.9098 -47.9972 -20.4581 -70.9671 -0.1287 87.7410 110.9189 74.7108 -25.6018 -1.7790 25.2312 4.0530 -126.3426 36.7832 166.5718 147.3198 72.1761 -113.0346 0.9295 -6.1136 -14.5110 -78.8468 40.8398 -137.5557 24.4518 -7.2835 -104.4430 -0.0569 -0.0388 -0.2266 -3.2666 7.8879 45.4351 -121.5954 -1.3724 79.8940 2.4463 -4.3581 35.6065 -0.1968 0.3134 -0.1663 -34.8828 16.0593 93.3761 -3.1470 37.8271 -15.4162 -3.2811 -0.1066 0.5416 3.0502 -9.7330 5.4123 -43.7000 -18.0673 86.7116 1.6873 42.4979 3.0901 -5.7940 -3.6690 0.3822 2.2807 -16.9616 -15.0371 
0.0000 93.1000 0.0000 60.7428 -47.4754 -21.6786 -70.9592 0.1580 87.6997 107.0584 74.7408 -21.7512 -1.6988 25.3032 3.9782 -129.5314 37.9533 166.2393 147.8658 73.9060 -117.5555 1.2541 -5.9522 -15.9542 -81.2902 40.5634 -136.4516 20.1465 -6.7704 -106.4327 -0.1425 -0.0532 -0.0085 -2.9063 7.6185 44.8236 -123.2234 -2.5227 77.9703 2.9251 -5.1220 37.1300 -0.0210 0.3237 0.0199 -37.4811 14.8360 95.2198 -4.2012 36.3065 -15.7035 -2.9533 -0.9950 0.2126 3.5580 -10.1958 6.9112 -46.2494 -16.5325 83.3285 0.6717 33.7814 6.5388 -2.2014 0.7783 -0.0902 2.3323 -16.9364 -11.4761 
